<svg width="19" height="20" viewBox="0 0 19 20" fill="none" xmlns="http://www.w3.org/2000/svg">
<path d="M5.65382 19.3076C5.16794 19.3076 4.75481 19.1374 4.41442 18.7971C4.07404 18.4567 3.90385 18.0436 3.90385 17.5577C3.90385 17.0718 4.07404 16.6586 4.41442 16.3183C4.75481 15.9779 5.16794 15.8077 5.65382 15.8077C6.13972 15.8077 6.55287 15.9779 6.89325 16.3183C7.23363 16.6586 7.40382 17.0718 7.40382 17.5577C7.40382 18.0436 7.23363 18.4567 6.89325 18.7971C6.55287 19.1374 6.13972 19.3076 5.65382 19.3076ZM15.3461 19.3076C14.8602 19.3076 14.4471 19.1374 14.1067 18.7971C13.7663 18.4567 13.5961 18.0436 13.5961 17.5577C13.5961 17.0718 13.7663 16.6586 14.1067 16.3183C14.4471 15.9779 14.8602 15.8077 15.3461 15.8077C15.832 15.8077 16.2451 15.9779 16.5855 16.3183C16.9259 16.6586 17.0961 17.0718 17.0961 17.5577C17.0961 18.0436 16.9259 18.4567 16.5855 18.7971C16.2451 19.1374 15.832 19.3076 15.3461 19.3076ZM10.3972 3.49996C7.66909 3.49997 5.87437 6.34587 7.04997 8.80768H13.8673C13.925 8.80768 13.9763 8.79325 14.0211 8.7644C14.066 8.73555 14.1045 8.69548 14.1365 8.6442L16.8192 3.7692C16.8577 3.69868 16.8609 3.63618 16.8288 3.5817C16.7968 3.5272 16.7423 3.49995 16.6653 3.49995L10.3972 3.49996ZM3.79613 2C3.79613 2.00002 3.79613 2.00003 3.79615 2.00003H17.6807C18.0897 2.00003 18.399 2.17406 18.6086 2.52213C18.8182 2.87021 18.8281 3.22566 18.6384 3.58847L15.4346 9.39225C15.2705 9.68072 15.0535 9.9054 14.7836 10.0663C14.5137 10.2272 14.2179 10.3076 13.8961 10.3076H9.01144C7.52456 10.3076 6.1561 11.1187 5.44227 12.423C5.39099 12.5 5.38939 12.5833 5.43747 12.6731C5.48556 12.7628 5.55767 12.8077 5.65382 12.8077H16.3461C16.7603 12.8077 17.0961 13.1435 17.0961 13.5577C17.0961 13.9719 16.7603 14.3076 16.3461 14.3076H5.65382C4.98717 14.3076 4.48622 14.0201 4.15095 13.4452C3.8157 12.8702 3.80384 12.2961 4.11538 11.7231C5.01079 10.1133 5.07304 8.16998 4.2825 6.50618L2.22026 2.16588C2.027 1.75914 1.61689 1.49995 1.16657 1.49995H0.749975C0.335775 1.49995 0 1.16418 0 0.749976C0 0.335776 0.335775 0 0.749975 0H1.74386C2.4171 0 3.0302 0.38753 3.31906 0.995647L3.79612 2C3.79612 2 3.79613 2 3.79613 2Z" fill="white"/>
</svg>
